<svg width="49" height="48" viewBox="0 0 49 48" fill="none" xmlns="http://www.w3.org/2000/svg">
<circle cx="24.5" cy="24" r="24" fill="#148EFF"/>
<path fill-rule="evenodd" clip-rule="evenodd" d="M18.4078 16.93C23.8863 16.4867 29.7116 17.6777 33.7605 19.5523C34.8274 16.8979 35.3555 14.6868 35.1634 12.6253C35.1581 12.5505 35.1581 12.3743 35.2488 12.3743C35.3715 12.3743 35.4728 12.6307 35.5102 12.7375C36.161 14.8043 35.9796 17.3412 35.0514 20.1985C38.7269 22.1639 40.8393 24.7168 40.4552 27.0987C39.9538 30.2284 35.3555 32.071 29.1781 31.8573C29.7809 31.2111 30.6025 30.2605 31.2426 29.422C33.6271 28.9627 35.3341 28.0173 35.7822 26.5059C36.1076 25.4057 35.3555 24.188 33.9205 23.0398C31.568 28.012 27.6258 32.4662 23.977 35.0404C25.7427 37.2942 27.3858 38.8591 29.2635 39.7349C29.3328 39.767 29.4875 39.8524 29.4395 39.9326C29.3809 40.034 29.1088 39.9966 28.9968 39.9753C26.8843 39.5053 24.7772 38.0793 22.7714 35.8469C19.2347 38.0526 15.9753 38.6027 14.1029 37.0806C11.6437 35.0778 12.3478 30.1697 15.6339 24.9197C15.8899 25.7635 16.3007 26.9545 16.7061 27.9266C15.9166 30.2231 15.8793 32.1778 16.9622 33.3207C17.7463 34.1539 19.1813 34.1111 20.8884 33.4382C17.7624 28.9093 15.8846 23.2641 15.4792 18.8152C12.6466 19.2211 10.4701 19.862 8.77374 21.053L8.76998 21.0553C8.69931 21.0989 8.55951 21.1851 8.51235 21.1064C8.45367 21.0049 8.61904 20.786 8.69373 20.7005C10.1607 19.1036 12.4492 17.9928 15.3832 17.3679C15.2445 13.1968 16.3967 10.0938 18.6479 9.23394C21.6085 8.1017 25.5027 11.1619 28.4046 16.6255C27.5405 16.4279 26.3029 16.1876 25.2626 16.0541C23.673 14.2222 22.0033 13.2128 20.4723 13.5813C19.3627 13.8483 18.6799 15.1141 18.4078 16.93ZM18.2691 18.5856C18.2638 23.5845 19.7681 28.5301 22.382 32.7279C26.7136 30.2391 30.2344 26.4578 32.5602 22.0945C28.2393 19.5843 23.2089 18.42 18.2691 18.5856Z" fill="white"/>
</svg>
